<svg width="198" height="60" viewBox="0 0 198 60" fill="none" xmlns="http://www.w3.org/2000/svg">
<g clip-path="url(#clip0_777_357)">
<path d="M60 30C60 46.6 46.6 60 30 60C13.4 60 0 46.6 0 30C0 13.4 13.4 0 30 0C46.6 0 60 13.4 60 30Z" fill="white"/>
<path d="M27.4996 56.9C27.7996 56.6 27.8996 56.2 27.9996 55.7C27.9996 55.4 27.9996 55.1 27.9996 54.7C27.9996 54.6 27.9996 54.5 27.9996 54.4C27.9996 53.6 27.9996 52.7 28.0996 51.9C28.2996 49.6 28.2996 47.3 28.4996 45C26.6996 45 25.0996 45 24.7996 45.1C23.9996 45.1 23.3996 45.3 22.7996 45.5C22.5996 45.6 22.3996 45.6 22.1996 45.7C21.9996 45.7 21.8996 45.8 21.3996 45.8C21.0996 45.8 21.4996 45.9 20.9996 45.9C21.0996 45.9 21.1996 46 20.8996 46C19.8996 46 19.3996 45.5 18.3996 45.6C18.0996 45.6 17.6996 45.9 17.2996 46C16.4996 46.1 16.7996 45.6 16.3996 45.6C16.3996 45.6 15.3996 46 14.8996 46.1C14.7996 46.1 14.7996 46.1 14.7996 46.2C14.7996 46.2 14.6996 46.2 14.6996 46.3C14.6996 46.3 14.4996 46.3 14.7996 46.2C14.6996 46.2 14.3996 46.1 14.4996 46.1L14.2996 46L14.1996 45.9C14.2996 45.9 13.9996 45.9 14.2996 45.8C14.2996 45.8 13.8996 45.8 14.0996 45.7C13.9996 45.7 13.8996 45.7 13.8996 45.6L13.7996 45.5C13.7996 45.5 13.6996 45.4 13.7996 45.4C13.8996 45.4 13.5996 45.3 13.7996 45.3C13.5996 45.3 13.3996 45.2 13.3996 45.2L13.2996 45.1C13.2996 45.1 13.1996 45 13.2996 45L13.1996 44.9C13.0996 44.9 13.0996 44.8 13.0996 44.8C13.0996 44.8 13.0996 44.7 12.9996 44.7V44.6C12.9996 44.6 12.8996 44.5 12.9996 44.5C13.0996 44.4 12.7996 44.4 12.8996 44.3C12.9996 44.2 12.7996 44.2 13.1996 44.1C12.9996 44 12.6996 44 13.0996 43.9C13.0996 43.9 12.6996 43.8 13.1996 43.8C13.1996 43.8 12.7996 43.8 13.2996 43.7C13.2996 43.7 12.7996 43.7 13.3996 43.7H13.2996C13.1996 43.7 13.1996 43.7 13.1996 43.7C13.0996 43.7 12.9996 43.7 13.0996 43.7C12.8996 43.7 12.8996 43.6 12.9996 43.5C12.9996 43.5 12.9996 43.4 13.0996 43.4C12.9996 43.4 13.0996 43.3 13.2996 43.3C13.2996 43.2 13.0996 43.2 13.2996 43.1C13.2996 43 13.1996 43 13.3996 42.9C13.4996 42.8 13.2996 42.8 13.3996 42.7C13.2996 42.6 13.2996 42.6 13.3996 42.5C13.3996 42.4 13.3996 42.4 13.5996 42.3C13.4996 42.2 13.4996 42.2 13.5996 42.1C13.6996 42 13.5996 42 13.6996 41.9C13.6996 41.8 13.6996 41.8 13.6996 41.7L13.7996 41.6L13.8996 41.5C13.2996 41.7 12.6996 42.4 12.1996 42.7C11.7996 43 11.3996 43.4 10.9996 43.9C10.7996 44.7 10.4996 44.5 10.3996 45.1C10.2996 45.6 9.99958 45 10.0996 46.4C9.89958 47 9.79958 47 9.89958 48C9.89958 48.2 9.89958 48.3 9.89958 48.4C14.0996 53 19.8996 56.1 26.3996 57C26.7996 57.1 27.1996 57.1 27.4996 56.9Z" fill="#9AC550"/>
<path d="M47.6002 47.6C47.5002 47.6 47.3002 47.4 47.0002 47.1C46.8002 47.7 46.4002 46.5 46.2002 47C45.7002 47 45.2002 47.5 44.6002 47.1C44.0002 46.9 43.5002 47.6 42.9002 47.1C42.4002 47.5 41.8002 47.1001 41.3002 46.9001C41.0002 46.6001 40.9002 46.9 40.6002 46.5C40.6002 46.6 40.4002 46.5 40.2002 46.3C40.0002 46.1 39.9002 45.9 39.7002 45.8L39.6002 45.7001C38.7002 45.4001 37.8002 45.9 36.8002 45C36.2002 44.5 35.7002 45.6 34.8002 45C34.5002 44.8 32.6002 44.8 30.4002 44.8C30.4002 45.1 30.4002 45.3 30.4002 45.6C30.1002 48.5 30.2002 51.5001 30.3002 54.4001C30.3002 54.4001 30.4002 55.6 30.7002 56.3C30.9002 56.8 31.3002 57.0001 32.0002 56.9001C38.6002 56.4001 44.5002 53.6 48.9002 49.2001C48.8002 49.1001 48.6002 48.9 48.5002 48.8C48.4002 49 48.0002 48 47.6002 47.6Z" fill="#99C44E"/>
<path d="M6.0002 41.4C6.0002 40.5 6.0002 40.9 5.8002 39.9C5.8002 40.1 5.6002 39.3999 5.4002 38.2999C5.4002 38.7999 5.3002 37.5 5.3002 36.5999C5.3002 36.0999 5.4002 35 5.6002 34.7999C5.7002 33.5999 6.1002 34.1 6.3002 33.2C6.5002 32.6 6.7002 32.1999 7.0002 32.2999C7.2002 32 7.5002 31.7999 7.7002 31.4C8.1002 31.2999 8.4002 31.0999 8.6002 29.7999C8.8002 28.5999 9.0002 28.2 9.4002 28.1C9.4002 27.6 9.9002 27.1999 10.5002 26.7999C11.1002 25.6999 11.9002 25.6 12.4002 24.5C13.0002 23.7999 13.4002 23.2999 13.4002 23.2999C13.9002 22.6999 14.6002 21.7999 15.4002 22.4C16.2002 22.6999 17.0002 22.5 17.7002 22.2C17.8002 21.7 18.6002 21.8 19.3002 21.7C20.0002 21.4 20.7002 21.1 20.5002 21C20.6002 21.1 20.8002 21.1 20.9002 20.9C21.0002 20.7999 21.2002 20.6 21.3002 20.6C21.5002 20.7 21.8002 20.2999 22.0002 20.4C22.3002 20.2999 22.5002 20 22.7002 20.1C23.3002 19.8 24.3002 19.2999 25.0002 18.7999C25.1002 18.6999 25.2002 18.7 25.3002 18.6C25.6002 18.5 25.4002 18.4 25.7002 18.4C25.6002 18.3 25.5002 18.2 25.7002 18.1C25.7002 18 25.6002 17.9 25.6002 17.8C25.7002 17.7 25.5002 17.6 25.6002 17.5C25.5002 17.4 25.3002 17.3 25.5002 17.2C25.5002 17.1 25.2002 17.1 25.1002 17C25.0002 16.9 25.0002 16.9 24.9002 16.8C24.8002 16.7 24.6002 16.6 24.6002 16.5C24.4002 16.4 24.1002 16.3 23.9002 16.2C24.0002 16.1 23.6002 16 24.0002 15.9C23.8002 15.8 23.3002 15.7 23.5002 15.6C23.3002 15.5 23.1002 15.4 23.2002 15.2C23.1002 15 22.9002 14.7 23.2002 14.5C23.3002 14.3 22.9002 14 23.2002 13.8C23.1002 13.6 23.0002 13.3 23.2002 13.1C23.3002 12.9 23.2002 12.7 23.4002 12.4C23.5002 12.2 23.6002 12 23.8002 11.8C24.8002 10.3 26.3002 9.09995 27.4002 7.99995C27.8002 7.59995 30.4002 4.89995 31.9002 3.49995C32.7002 2.69995 31.3002 2.69995 29.7002 2.69995C14.9002 2.79995 2.7002 15 2.7002 30C2.7002 34.6 3.8002 38.9 5.8002 42.7C6.1002 42.6 6.1002 42.3 6.0002 41.4Z" fill="#DF2831"/>
<path d="M50.9005 27.8001C49.5005 26.8001 48.5005 25.8001 46.9005 25.4001C46.2005 25.3001 45.7005 26.2001 45.1005 26.4001C44.8005 26.7001 44.5005 26.5001 44.2005 27.6001C43.9005 27.4001 43.6005 28.0001 43.2005 28.6001C43.0005 27.8001 42.8005 29.5001 42.6005 28.9001C41.9005 28.8001 41.2005 30.3001 40.4005 29.9001C39.7005 29.7001 38.9005 30.5001 38.2005 30.7001C37.6005 30.9001 37.0005 31.1001 36.4005 31.3001C36.4005 31.3001 36.5005 31.4001 36.4005 31.4001C36.4005 31.5001 36.4005 31.5001 36.0005 31.5001C35.8005 31.5001 35.9005 31.5001 35.9005 31.5001C35.9005 31.5001 35.9005 31.5001 35.5005 31.5001C35.5005 31.5001 35.7005 31.5001 35.6005 31.5001C35.6005 31.5001 35.8005 31.5001 35.5005 31.5001C35.6005 31.5001 35.6005 31.5001 35.6005 31.5001C35.7005 31.5001 35.7005 31.5001 35.5005 31.5001C35.4005 31.5001 35.4005 31.5001 35.4005 31.5001H35.5005H35.6005C35.5005 31.5001 35.4005 31.5001 35.4005 31.5001H35.5005C35.5005 31.5001 35.5005 31.5001 35.4005 31.5001C35.4005 31.5001 35.4005 31.5001 35.3005 31.5001C35.3005 31.5001 35.3005 31.5001 35.2005 31.5001C35.2005 31.6001 35.3005 31.6001 35.2005 31.7001C35.1005 31.9001 35.2005 32.0001 35.3005 32.1001C35.4005 32.3001 35.8005 32.4001 36.1005 32.4001C36.2005 32.4001 36.2005 32.4001 36.3005 32.4001C36.4005 32.4001 36.4005 32.4001 36.5005 32.4001C36.6005 32.4001 36.6005 32.4001 36.6005 32.4001C36.6005 32.4001 36.8005 32.4001 36.7005 32.4001C36.7005 32.4001 36.9005 32.4001 36.8005 32.4001H36.9005C36.9005 32.4001 37.1005 32.4001 37.0005 32.4001H37.1005C37.1005 32.4001 37.2005 32.4001 37.0005 32.4001H37.1005H37.2005H37.3005C37.3005 32.4001 37.5005 32.4001 37.4005 32.4001H37.5005C37.5005 32.4001 37.5005 32.4001 37.4005 32.4001H37.5005H37.6005H37.7005H37.8005C37.8005 32.4001 37.8005 32.4001 37.7005 32.4001C37.7005 32.4001 37.9005 32.4001 37.8005 32.4001C37.8005 32.4001 38.0005 32.4001 37.7005 32.4001C37.7005 32.4001 37.9005 32.4001 37.8005 32.4001C37.8005 32.4001 38.1005 32.4001 37.9005 32.4001C37.9005 32.4001 38.3005 32.4001 38.0005 32.4001C38.0005 32.4001 38.4005 32.4001 38.1005 32.4001C38.3005 32.4001 38.5005 32.5001 38.5005 32.5001C38.5005 32.5001 38.7005 32.6001 38.8005 32.6001C38.8005 32.6001 38.9005 32.7001 38.9005 32.8001C38.9005 32.8001 38.9005 32.9001 39.0005 32.9001V33.0001V33.1001V33.2001C39.0005 33.2001 39.0005 33.2001 38.9005 33.3001C38.8005 33.3001 38.9005 33.4001 38.8005 33.5001C38.8005 33.5001 38.8005 33.6001 38.7005 33.6001C38.7005 33.6001 38.8005 33.7001 38.5005 33.7001C38.5005 33.7001 38.8005 33.8001 38.5005 33.8001L38.7005 33.9001V34.0001C38.7005 34.0001 38.7005 34.1001 38.6005 34.1001C38.5005 34.1001 38.6005 34.2001 38.5005 34.2001C38.4005 34.2001 38.5005 34.3001 38.4005 34.3001C38.4005 34.3001 38.5005 34.4001 38.4005 34.4001C38.4005 34.4001 38.5005 34.5001 38.4005 34.5001C38.4005 34.5001 38.5005 34.6001 38.4005 34.6001C38.4005 34.6001 38.5005 34.7001 38.4005 34.7001C38.4005 34.8001 38.4005 34.8001 38.3005 34.9001C38.3005 35.0001 38.3005 35.0001 38.2005 35.0001C38.2005 35.0001 38.2005 35.0001 38.2005 35.1001C38.2005 35.1001 38.2005 35.1001 38.1005 35.1001C38.0005 35.1001 38.0005 35.1001 38.0005 35.1001C37.9005 35.1001 38.0005 35.1001 37.9005 35.1001H37.8005C37.7005 35.1001 37.7005 35.1001 37.6005 35.1001C36.3005 35.4001 34.0005 35.5001 32.8005 35.9001C32.1005 35.2001 30.9005 36.2001 29.8005 36.9001C29.7005 37.0001 29.6005 37.0001 29.4005 37.1001C29.0005 37.2001 29.1005 37.2001 28.6005 37.3001C28.2005 37.5001 28.5005 37.6001 28.3005 37.4001C28.2005 37.3001 28.1005 37.3001 27.9005 37.3001C27.1005 37.4001 25.7005 38.5001 24.7005 39.1001C24.4005 39.1001 24.3005 39.2001 24.0005 39.2001C23.5005 39.4001 23.8005 39.5001 23.4005 39.5001C23.3005 39.3001 23.4005 39.2001 23.4005 39.1001C23.3005 39.0001 23.2005 38.8001 23.1005 38.7001C22.7005 38.8001 22.1005 40.1001 22.3005 40.4001C22.6005 40.9001 24.7005 40.6001 25.1005 40.5001C25.9005 40.4001 26.7005 40.3001 27.5005 40.3001C27.5005 40.1001 28.0005 40.1001 28.8005 40.2001C28.9005 39.8001 28.9005 39.5001 29.0005 39.1001C29.0005 39.0001 29.2005 38.9001 29.3005 38.7001C29.3005 38.6001 29.5005 38.6001 29.6005 38.5001C29.5005 38.4001 29.8005 38.4001 29.8005 38.3001C29.8005 38.2001 29.9005 38.2001 30.0005 38.1001C30.1005 38.1001 30.2005 38.0001 30.3005 38.0001C30.4005 38.0001 30.4005 37.9001 30.4005 37.9001C30.6005 38.0001 30.5005 38.0001 30.5005 38.1001C30.7005 38.2001 30.6005 38.2001 30.6005 38.3001C30.6005 38.4001 30.6005 38.6001 30.6005 38.7001C30.6005 39.2001 30.6005 39.8001 30.6005 40.3001C30.9005 40.3001 31.3005 40.4001 31.6005 40.4001C33.1005 40.5001 35.0005 40.3001 36.4005 40.9001C37.0005 41.1001 38.4005 41.6001 39.0005 41.7001C39.6005 41.8001 40.8005 41.3001 41.2005 41.9001C41.3005 42.0001 41.3005 42.3001 40.8005 42.6001C40.9005 42.9001 41.2005 43.1001 40.8005 43.1001C40.8005 43.1001 41.1005 43.2001 40.9005 43.5001C40.8005 43.7001 41.0005 44.0001 40.8005 44.2001C40.6005 44.5001 41.0005 44.8001 40.7005 45.0001C40.7005 45.2001 40.9005 45.4001 40.6005 45.5001C40.6005 45.6001 40.6005 45.6001 40.6005 45.7001C40.8005 46.1001 41.0005 45.8001 41.3005 46.1001C41.8005 46.3001 42.4005 46.7001 42.9005 46.3001C43.5005 46.7001 44.0005 46.0001 44.6005 46.3001C45.2005 46.7001 45.7005 46.2001 46.2005 46.2001C46.4005 45.6001 46.8005 46.8001 47.0005 46.3001C47.3005 46.6001 47.4005 46.8001 47.6005 46.8001C48.0005 47.2001 48.3005 48.2001 48.6005 48.3001C48.7005 48.5001 48.8005 48.6001 49.0005 48.7001C54.1005 43.8001 57.2005 36.8001 57.2005 29.2001C57.2005 29.1001 57.2005 29.0001 57.2005 28.9001C56.6005 28.8001 56.1005 28.6001 55.5005 28.5001C53.9005 29.0001 52.3005 28.9001 50.9005 27.8001Z" fill="#FECB3B"/>
<path d="M29.8998 23.7C29.8998 23.6 29.7998 23.5 29.6998 23.4C29.5998 23.2 29.3998 23.1 29.0998 23.1C28.6998 23.2 28.0998 23.3 27.8998 23.3C26.8998 23.5 27.6998 23.1 26.7998 22.9C26.5998 22.9 26.2998 23 26.0998 23.1C25.6998 23.3 25.3998 23.6 25.1998 23.6C24.8998 23.6 24.1998 23.9 23.6998 24C23.5998 24 23.5998 24 23.4998 24H23.5998C23.3998 24 23.4998 24 23.4998 24C23.3998 24 23.2998 24 23.3998 23.9C23.2998 23.9 23.0998 23.8 23.2998 23.8L22.9998 23.7C22.9998 23.7 22.8998 23.6 22.8998 23.5C22.8998 23.5 22.6998 23.4 22.8998 23.4C22.8998 23.4 22.6998 23.3 22.7998 23.3C22.7998 23.3 22.6998 23.2 22.7998 23.2C22.7998 23.2 22.5998 23.1 22.7998 23.1C22.6998 23.1 22.4998 23 22.6998 23C22.6998 23 22.3998 22.9 22.5998 22.9C22.5998 22.8 22.2998 22.8 22.4998 22.7C22.4998 22.7 22.1998 22.7 22.3998 22.6C22.3998 22.6 22.2998 22.6 22.4998 22.5H22.3998C22.2998 22.5 22.2998 22.5 22.3998 22.4C22.3998 22.4 22.1998 22.3 22.2998 22.3C22.3998 22.3 22.1998 22.2 22.3998 22.2C22.3998 22.1 22.1998 22.1 22.4998 22C22.5998 21.9 22.1998 21.9 22.2998 21.8C22.3998 21.7 22.2998 21.7 22.4998 21.6C22.5998 21.5 22.2998 21.5 22.4998 21.4C22.5998 21.3 22.4998 21.3 22.5998 21.2C22.5998 21.1 22.4998 21.1 22.7998 21C22.8998 21 22.6998 20.9 22.8998 20.8C22.7998 20.7 22.7998 20.7 22.7998 20.6C22.7998 20.5 22.7998 20.5 22.7998 20.4C22.7998 20.3 22.7998 20.3 22.8998 20.2V20.1C22.8998 20.1 22.8998 20.1 22.9998 20C22.9998 20 22.9998 20 22.9998 19.9C22.8998 19.9 22.8998 19.9 22.8998 19.8V19.7C22.8998 19.7 22.8998 19.6 22.9998 19.6C23.0998 19.6 22.9998 19.5 23.0998 19.5L23.1998 19.4C22.9998 19.3 22.6998 19.6 22.4998 19.7C22.1998 19.6 21.9998 20 21.7998 19.9C21.6998 19.9 21.4998 20.1 21.3998 20.2C21.2998 20.3 21.0998 20.4 20.9998 20.3C21.0998 20.4 20.4998 20.7 19.7998 21C19.0998 21.1 18.2998 21.1 18.1998 21.5C17.4998 21.9 16.6998 22 15.8998 21.7C15.0998 21.1 14.3998 22.1 13.8998 22.6C13.8998 22.6 13.4998 23.1 12.8998 23.8C12.3998 24.9 11.4998 25 10.9998 26.1C10.3998 26.6 9.8998 26.9 9.8998 27.4C9.4998 27.4 9.2998 27.8 9.0998 29.1C8.8998 30.4 8.5998 30.6 8.1998 30.7C7.9998 31.1 7.6998 31.3 7.4998 31.6C7.1998 31.5 6.9998 31.9 6.7998 32.5C6.4998 33.3 6.1998 32.9 6.0998 34.1C5.8998 34.3 5.7998 35.4 5.7998 35.9C5.7998 36.9 5.8998 38.2 5.8998 37.6C6.0998 38.7 6.1998 39.3 6.2998 39.2C5.9998 40.9 5.9998 40.5 5.9998 41.4C6.0998 42.2 5.9998 42.5 5.8998 42.7C6.0998 43.1 6.2998 43.4 6.4998 43.8C7.4998 45.5 8.5998 47 9.8998 48.4C9.8998 48.3 9.8998 48.2 9.8998 48C9.7998 47 9.8998 47 9.9998 46.6C9.8998 45.1 10.1998 45.8 10.2998 45.3C10.3998 44.7 10.6998 44.9 10.8998 44.1C11.1998 43.6 11.5998 43.2 12.0998 42.9C12.4998 42.6 13.1998 41.8 13.7998 41.7C13.7998 41.7 13.7998 41.7 13.8998 41.6C13.8998 41.6 13.8998 41.6 13.9998 41.6L14.0998 41.5C14.5998 41.3 15.3998 41 16.0998 40.6C16.1998 40.5 16.2998 40.4 16.3998 40.4C16.9998 40.3 16.5998 40.2 16.8998 40.1C16.9998 39.7 17.0998 39.8 17.2998 39.9C17.3998 40 17.4998 40.2 17.6998 40.2C17.7998 40.2 18.0998 40 18.4998 39.7C19.1998 39.2 20.1998 38.5 20.5998 38.2C20.6998 38.1 20.6998 38.1 20.8998 38.1C20.8998 38 20.7998 37.9 20.8998 37.8C20.8998 37.7 20.6998 37.6 20.7998 37.6C20.7998 37.5 20.4998 37.5 20.8998 37.5C20.5998 37.5 20.0998 37.4 20.0998 37.4C19.9998 37.4 19.8998 37.4 19.8998 37.3C19.8998 37.3 19.7998 37.3 19.8998 37.2C19.7998 37.2 19.5998 37.1 19.5998 37.1C19.5998 37.1 19.4998 37 19.5998 37C19.4998 37 19.3998 36.9 19.3998 36.9C19.3998 36.9 19.1998 36.8 19.3998 36.7C19.3998 36.6 19.1998 36.6 19.3998 36.5L19.2998 36.4C19.2998 36.4 19.1998 36.3 19.3998 36.3C19.5998 36.2 19.2998 36.2 19.3998 36.1C19.2998 36.1 19.2998 36 19.2998 36V35.9C19.2998 35.9 19.2998 35.8 19.3998 35.8C19.3998 35.8 19.3998 35.8 19.3998 35.7C19.4998 35.7 19.3998 35.7 19.4998 35.6C19.4998 35.6 19.3998 35.5 19.4998 35.5V35.4C19.5998 35.4 19.4998 35.3 19.5998 35.3C19.5998 35.3 19.5998 35.2 19.6998 35.2C19.6998 35.2 19.6998 35.1 19.7998 35.1C19.8998 35.1 19.7998 35.1 19.8998 35C19.8998 35 19.8998 35 19.9998 35C20.1998 35 19.8998 34.9 20.1998 34.9C20.1998 34.9 19.9998 34.8 20.1998 34.8C20.1998 34.8 20.1998 34.7 20.2998 34.7C20.3998 34.7 20.3998 34.6 20.4998 34.6C20.5998 34.6 20.5998 34.5 20.6998 34.5C20.7998 34.5 20.6998 34.4 20.7998 34.4C20.7998 34.4 20.7998 34.4 20.8998 34.3C20.8998 34.3 20.8998 34.2 20.9998 34.2C21.3998 33.9 21.4998 33.5 20.8998 32.8C20.7998 32.6 20.5998 32.5 20.4998 32.4L20.3998 32.3C20.3998 32.3 20.2998 32.2 20.5998 32.2C20.5998 32.2 20.1998 32.1 20.2998 32.1L20.0998 32C19.9998 32 19.9998 31.9 19.9998 31.9C19.9998 31.9 19.8998 31.8 19.9998 31.8C19.9998 31.8 19.8998 31.7 19.9998 31.7C19.9998 31.7 19.8998 31.6 19.7998 31.6C19.7998 31.6 19.7998 31.5 19.7998 31.4C19.7998 31.3 19.7998 31.3 19.7998 31.2C19.8998 31.1 19.7998 31.1 19.9998 31C20.0998 31 19.7998 30.9 20.0998 30.9C19.9998 30.9 19.7998 30.8 19.8998 30.8C19.8998 30.8 19.7998 30.7 19.8998 30.7C19.8998 30.7 19.8998 30.7 19.8998 30.6C19.8998 30.6 19.8998 30.6 19.9998 30.5C20.0998 30.5 19.8998 30.4 20.1998 30.4C20.1998 30.4 19.8998 30.3 20.0998 30.3C20.0998 30.2 19.9998 30.2 20.0998 30.1C20.0998 30 20.0998 30 20.1998 29.9C20.1998 29.9 20.1998 29.8 20.2998 29.8C20.2998 29.8 20.3998 29.7 20.4998 29.7C20.4998 29.7 20.4998 29.7 20.5998 29.7C20.6998 29.7 20.5998 29.7 20.7998 29.7C20.7998 29.7 20.6998 29.7 20.8998 29.7C20.8998 29.7 20.7998 29.7 20.9998 29.7C20.9998 29.7 20.8998 29.7 21.0998 29.7H20.9998C20.9998 29.7 20.7998 29.7 21.0998 29.7C21.0998 29.7 20.9998 29.7 21.1998 29.7C21.1998 29.7 21.0998 29.7 21.2998 29.7C21.2998 29.7 21.1998 29.7 21.3998 29.7H21.4998C21.5998 29.7 21.5998 29.7 21.6998 29.7C21.7998 29.7 21.7998 29.7 21.8998 29.7C21.8998 29.7 21.8998 29.7 21.9998 29.7C22.0998 29.7 22.2998 29.7 22.2998 29.6C22.3998 29.6 22.4998 29.5 22.6998 29.4C22.7998 29.3 22.5998 29.3 22.6998 29.2C22.6998 29.1 22.5998 29 22.6998 29C22.6998 28.9 22.5998 28.8 22.5998 28.7C22.5998 28.6 22.5998 28.5 22.5998 28.5C22.5998 28.5 22.5998 28.4 22.6998 28.4C23.0998 28.4 22.6998 28.3 23.1998 28.3C23.2998 28.3 22.6998 28.2 22.9998 28.2C22.9998 28.2 22.6998 28.1 22.9998 28.1C22.9998 28.1 22.5998 28 22.8998 28C22.9998 28 22.4998 27.9 23.1998 27.9C22.9998 27.9 22.4998 27.8 22.6998 27.8C22.6998 27.8 22.4998 27.7 22.8998 27.7C22.8998 27.7 22.4998 27.7 22.9998 27.7C22.9998 27.7 22.5998 27.7 23.0998 27.7C23.0998 27.7 22.6998 27.7 22.9998 27.7H22.7998C22.6998 27.7 22.5998 27.7 22.6998 27.7C22.5998 27.7 22.5998 27.7 22.6998 27.7C22.5998 27.7 22.4998 27.6 22.5998 27.6C22.4998 27.6 22.3998 27.6 22.4998 27.5C22.4998 27.5 22.5998 27.5 22.5998 27.4C22.5998 27.4 22.4998 27.3 22.5998 27.3C22.5998 27.2 22.5998 27.2 22.6998 27.1C22.6998 27.1 22.6998 27 22.8998 27C22.9998 27 22.8998 26.9 23.1998 26.9C23.3998 26.9 22.9998 26.8 23.4998 26.8C23.5998 26.8 23.1998 26.7 23.5998 26.7C23.5998 26.7 23.2998 26.6 23.6998 26.6C23.6998 26.6 23.6998 26.6 23.7998 26.6C23.7998 26.6 23.6998 26.6 23.8998 26.6C23.8998 26.6 23.7998 26.6 23.9998 26.6C23.9998 26.6 23.7998 26.6 24.0998 26.6C24.0998 26.6 24.0998 26.6 24.0998 26.5C24.4998 26.4 24.8998 26.3 25.2998 26.2C26.0998 26 26.7998 26 27.4998 25.7C27.5998 25.6 27.7998 25.6 28.0998 25.5C28.2998 25.4 28.2998 25.4 28.3998 25.4C28.4998 25.4 28.5998 25.5 28.8998 25.5C28.9998 25.5 29.0998 25.5 29.0998 25.4C29.1998 25.3 29.1998 25.2 29.4998 25.1C29.9998 23.9 29.7998 23.8 29.8998 23.7Z" fill="#50BFC3"/>
<path d="M55.3998 19.9999C52.4998 12.6999 46.5998 6.9999 39.2998 4.3999C38.4998 4.0999 37.7998 3.8999 36.9998 3.6999C34.9998 3.1999 35.0998 4.0999 33.5998 6.0999C33.5998 6.0999 33.6998 6.0999 33.5998 6.1999C33.5998 6.1999 33.7998 6.1999 33.5998 6.2999C33.5998 6.2999 33.6998 6.2999 33.5998 6.3999C33.5998 6.3999 33.6998 6.3999 33.4998 6.3999H33.3998C33.3998 6.3999 33.2998 6.3999 33.2998 6.4999C32.9998 6.5999 32.6998 6.7999 32.4998 7.2999C32.3998 7.5999 32.1998 7.7999 31.8998 7.7999C31.9998 7.8999 31.8998 7.8999 31.6998 7.8999C31.4998 7.8999 31.1998 7.7999 30.9998 8.0999C30.6998 8.4999 27.3998 12.3999 27.2998 12.1999C27.6998 13.2999 31.8998 10.8999 34.2998 10.1999C34.3998 10.1999 34.5998 10.0999 34.6998 10.0999C34.7998 10.0999 34.8998 10.0999 34.8998 9.9999C34.8998 9.9999 34.8998 9.9999 34.9998 9.9999C35.0998 9.9999 35.0998 9.9999 34.9998 9.9999C35.0998 9.9999 35.0998 9.9999 35.0998 9.9999H34.9998C35.0998 9.9999 35.3998 9.9999 34.9998 9.9999C35.0998 9.9999 35.3998 9.9999 34.8998 9.9999C34.8998 9.9999 35.1998 9.9999 34.9998 9.9999C34.9998 9.9999 35.3998 9.9999 35.0998 9.9999C35.0998 9.9999 35.3998 9.9999 35.1998 9.9999C35.1998 9.9999 35.5998 9.9999 35.2998 9.9999H35.4998C35.5998 9.9999 35.5998 9.9999 35.3998 9.9999C35.3998 9.9999 35.7998 9.9999 35.4998 10.0999C35.4998 10.0999 35.7998 10.1999 35.6998 10.1999C35.5998 10.1999 35.8998 10.2999 35.5998 10.3999C35.7998 10.4999 35.8998 10.4999 35.7998 10.5999C35.7998 10.5999 35.9998 10.6999 35.6998 10.6999C35.6998 10.6999 35.9998 10.7999 35.6998 10.7999L35.9998 10.8999C35.8998 10.8999 36.0998 10.9999 35.8998 10.9999C35.8998 10.9999 35.9998 11.0999 35.7998 11.0999C35.8998 11.0999 35.9998 11.1999 35.8998 11.1999C35.8998 11.1999 35.9998 11.2999 35.8998 11.2999C35.9998 11.2999 36.0998 11.3999 35.9998 11.3999C35.8998 11.3999 36.0998 11.4999 35.9998 11.4999C35.8998 11.4999 36.0998 11.5999 35.8998 11.5999C35.9998 11.5999 36.0998 11.6999 35.7998 11.6999C35.7998 11.6999 35.9998 11.7999 35.8998 11.7999C35.9998 11.7999 36.0998 11.8999 35.7998 11.8999C35.7998 11.8999 36.0998 11.9999 35.7998 11.9999C35.7998 12.0999 36.0998 12.0999 35.8998 12.1999C35.8998 12.2999 36.0998 12.2999 35.8998 12.3999C35.8998 12.3999 35.9998 12.4999 35.8998 12.4999C35.8998 12.5999 36.0998 12.5999 35.9998 12.5999C35.9998 12.5999 35.9998 12.5999 35.8998 12.6999C35.8998 12.6999 35.7998 12.6999 35.7998 12.7999C35.7998 12.7999 35.6998 12.7999 35.6998 12.8999C35.1998 13.1999 34.6998 13.6999 34.0998 13.8999C34.1998 13.9999 34.3998 14.1999 34.5998 14.3999C34.4998 14.4999 34.8998 14.5999 34.6998 14.7999C34.8998 14.8999 35.3998 15.0999 35.4998 15.1999C35.4998 15.1999 35.5998 15.1999 35.5998 15.2999C35.5998 15.2999 35.6998 15.2999 35.6998 15.3999L35.7998 15.4999C35.7998 15.4999 35.8998 15.4999 35.8998 15.5999C35.8998 15.5999 35.9998 15.5999 35.7998 15.6999C35.8998 15.6999 36.0998 15.6999 36.0998 15.7999C36.0998 15.7999 36.1998 15.7999 36.1998 15.8999C36.1998 15.8999 36.2998 15.8999 36.2998 15.9999C36.3998 15.9999 36.3998 16.0999 36.3998 16.0999C36.4998 16.0999 36.4998 16.1999 36.4998 16.1999C36.4998 16.1999 36.6998 16.2999 36.5998 16.2999C36.5998 16.2999 36.6998 16.2999 36.5998 16.3999C36.4998 16.3999 36.5998 16.3999 36.4998 16.3999H36.5998C36.6998 16.3999 36.7998 16.3999 36.5998 16.3999C36.5998 16.3999 36.6998 16.3999 36.6998 16.4999C36.7998 16.4999 36.7998 16.4999 36.6998 16.4999C36.5998 16.4999 36.6998 16.4999 36.6998 16.5999L36.5998 16.6999C36.5998 16.6999 36.5998 16.6999 36.4998 16.7999C36.4998 16.7999 36.4998 16.7999 36.3998 16.8999C36.3998 16.8999 36.3998 16.8999 36.2998 16.8999C36.1998 16.8999 36.3998 16.8999 36.2998 16.9999L36.1998 17.0999C35.7998 17.4999 35.2998 17.8999 34.9998 18.2999C34.9998 18.3999 34.8998 18.3999 34.8998 18.4999C34.7998 18.5999 34.7998 18.5999 34.6998 18.5999C34.5998 18.6999 34.6998 18.7999 34.4998 18.9999C34.4998 19.0999 34.5998 19.0999 34.4998 19.1999C34.3998 19.2999 34.4998 19.2999 34.2998 19.3999C34.3998 19.4999 34.4998 19.4999 34.6998 19.5999C34.7998 19.6999 34.8998 19.6999 34.9998 19.7999C35.2998 20.1999 35.5998 20.5999 35.8998 20.5999L35.9998 20.4999C35.9998 20.4999 36.4998 20.3999 36.5998 20.3999C36.6998 20.3999 36.6998 20.3999 36.6998 20.3999C36.6998 20.3999 36.7998 20.4999 36.6998 20.4999L36.7998 20.5999V20.6999C36.7998 20.7999 36.8998 20.7999 36.8998 20.8999C36.8998 20.9999 36.8998 20.9999 36.8998 21.0999C36.8998 21.1999 36.8998 21.1999 36.8998 21.2999C36.8998 21.3999 36.8998 21.3999 36.8998 21.4999C36.8998 21.5999 36.8998 21.5999 36.6998 21.6999C36.6998 21.7999 36.8998 21.7999 36.7998 21.8999C36.8998 21.9999 36.8998 21.9999 36.8998 22.0999C36.8998 22.1999 36.8998 22.1999 36.7998 22.2999C36.7998 22.3999 36.7998 22.3999 36.6998 22.4999C36.6998 22.5999 36.6998 22.5999 36.5998 22.6999C36.4998 22.7999 36.5998 22.7999 36.3998 22.8999C36.3998 22.9999 36.4998 22.9999 36.3998 23.0999C35.8998 22.9999 35.9998 22.9999 35.7998 23.0999C35.7998 23.1999 35.7998 23.1999 35.7998 23.2999C35.7998 23.3999 35.6998 23.3999 35.6998 23.4999C35.6998 23.5999 35.6998 23.5999 35.5998 23.6999C35.5998 23.7999 35.4998 23.7999 35.4998 23.8999C35.4998 23.9999 35.4998 23.9999 35.3998 24.0999C35.3998 24.1999 35.3998 24.1999 35.3998 24.2999C35.3998 24.3999 35.3998 24.3999 35.2998 24.4999C35.2998 24.5999 35.2998 24.5999 35.2998 24.6999C35.1998 24.8999 35.1998 25.0999 35.0998 25.2999L34.9998 25.3999C35.0998 25.6999 35.2998 25.8999 34.9998 25.9999C35.1998 26.0999 35.1998 26.1999 34.7998 26.1999V26.2999C34.7998 26.2999 34.6998 26.3999 34.4998 26.4999C34.5998 26.5999 34.6998 26.6999 34.5998 26.7999C34.5998 26.8999 34.6998 26.8999 34.5998 26.9999C34.5998 27.0999 34.5998 27.1999 34.5998 27.1999C34.4998 27.3999 35.1998 28.5999 35.3998 28.6999C35.5998 28.7999 35.6998 28.4999 35.9998 28.3999C35.9998 28.3999 36.0998 28.3999 36.0998 28.2999H36.1998C36.1998 28.2999 36.2998 28.2999 36.2998 28.3999L36.3998 28.4999C36.3998 28.4999 36.4998 28.5999 36.3998 28.6999C36.4998 28.6999 36.5998 28.7999 36.5998 28.7999L36.6998 28.8999C36.6998 28.9999 36.7998 28.9999 36.6998 28.9999C36.6998 28.9999 36.7998 29.0999 36.6998 29.0999C36.6998 29.0999 36.8998 29.1999 36.7998 29.1999C36.8998 29.1999 36.9998 29.2999 36.8998 29.2999C36.9998 29.3999 37.0998 29.3999 36.9998 29.3999C37.0998 29.3999 37.0998 29.4999 36.9998 29.4999C36.9998 29.4999 37.0998 29.5999 36.9998 29.5999C36.9998 29.5999 36.9998 29.6999 36.8998 29.7999C36.7998 29.7999 36.8998 29.8999 36.5998 29.8999C36.4998 29.8999 36.7998 29.9999 36.4998 29.9999C36.4998 29.9999 36.6998 30.0999 36.3998 30.0999C36.3998 30.0999 36.4998 30.0999 36.4998 30.1999C36.4998 30.1999 36.5998 30.2999 36.4998 30.2999C36.5998 30.2999 36.6998 30.3999 36.5998 30.3999C36.4998 30.3999 36.6998 30.4999 36.5998 30.4999C36.5998 30.4999 36.6998 30.5999 36.5998 30.5999V30.6999C36.4998 30.6999 36.5998 30.7999 36.4998 30.7999C36.4998 30.7999 36.5998 30.8999 36.3998 30.8999C36.3998 30.8999 36.5998 30.9999 36.3998 30.9999C36.3998 30.9999 36.5998 31.0999 36.3998 31.0999C36.3998 31.1999 36.4998 31.2999 36.3998 31.2999C36.3998 31.2999 36.4998 31.3999 36.3998 31.3999C36.9998 31.1999 37.5998 30.9999 38.1998 30.7999C38.8998 30.4999 39.6998 29.7999 40.3998 29.9999C41.0998 30.2999 41.8998 28.7999 42.5998 28.9999C42.7998 29.4999 42.9998 27.8999 43.1998 28.6999C43.5998 28.0999 43.8998 27.4999 44.1998 27.6999C44.4998 26.5999 44.7998 26.7999 45.0998 26.4999C45.6998 26.2999 46.1998 25.2999 46.8998 25.4999C48.4998 25.7999 49.5998 26.7999 50.8998 27.8999C52.2998 28.9999 53.7998 29.0999 55.4998 29.3999C56.0998 29.4999 56.6998 29.6999 57.1998 29.7999C57.1998 26.3999 56.4998 23.0999 55.3998 19.9999Z" fill="#50BFC3"/>
<path d="M86.4004 12C85.6004 12 84.9004 12.7 84.9004 13.5V28.2C84.9004 29 85.6004 29.7 86.4004 29.7C87.2004 29.7 87.9004 29 87.9004 28.2V13.5C87.8004 12.7 87.2004 12 86.4004 12Z" fill="#50BFC3"/>
<path d="M111.101 29.6C111.901 29.6 112.601 28.9 112.601 28.1V13.5C112.601 12.7 111.901 12 111.101 12C110.301 12 109.601 12.7 109.601 13.5V28.2C109.601 29 110.301 29.6 111.101 29.6Z" fill="#50BFC3"/>
<path d="M115.2 22H121.5V28.2C121.5 29 122.2 29.7 123 29.7C123.8 29.7 124.5 29 124.5 28.2V13.5C124.5 12.7 123.8 12 123 12C122.2 12 121.5 12.7 121.5 13.5V19.1H115.2C114.4 19.1 113.7 19.8 113.7 20.6C113.7 21.4 114.4 22 115.2 22Z" fill="#50BFC3"/>
<path d="M197.901 27.6L192.001 12.9C192.001 12.8 191.901 12.8 191.901 12.7C191.901 12.7 191.901 12.7 191.901 12.6L191.801 12.5L191.701 12.6L191.801 12.4C191.801 12.4 191.801 12.4 191.701 12.3C191.701 12.3 191.701 12.3 191.601 12.3C191.501 12.3 191.501 12.2 191.401 12.2C191.301 12.2 191.301 12.1 191.201 12.1H191.101C191.001 12.1 191.001 12.1 190.901 12H190.801C190.701 12 190.601 12 190.501 12V12.2L190.401 12H190.301C190.201 12 190.101 12 190.101 12.1C189.901 12.2 189.601 12.4 189.501 12.6C189.501 12.6 189.501 12.6 189.401 12.7C189.401 12.8 189.301 12.8 189.301 12.9L183.301 27.7C183.201 28.1 183.201 28.5 183.301 28.8C183.501 29.2 183.701 29.4 184.101 29.6C184.301 29.7 184.501 29.7 184.701 29.7C185.301 29.7 185.801 29.3 186.101 28.8L190.701 17.4L192.501 21.8H191.201C190.401 21.8 189.701 22.5 189.701 23.3C189.701 24.1 190.401 24.8 191.201 24.8H193.701L195.301 28.8C195.501 29.4 196.101 29.7 196.701 29.7C196.901 29.7 197.101 29.7 197.301 29.6C197.701 29.5 198.001 29.2 198.101 28.8C198.001 28.4 198.001 28 197.901 27.6Z" fill="#50BFC3"/>
<path d="M74.7004 18.6H73.3004C72.5004 18.6 71.8004 19.3 71.8004 20.1C71.8004 20.9 72.5004 21.6 73.3004 21.6H74.7004C76.6004 21.6 77.3004 22.3 77.4004 24.1C77.4004 24.7 77.4004 25.7 76.8004 26.2C76.4004 26.6 75.7004 26.8 74.7004 26.8H71.0004V15H77.8004C78.6004 15 79.3004 14.3 79.3004 13.5C79.3004 12.7 78.6004 12 77.7004 12H69.4004C68.6004 12 67.9004 12.7 67.9004 13.5V28.2C67.9004 29 68.6004 29.7 69.4004 29.7H74.6004C76.4004 29.7 77.8004 29.2 78.8004 28.2C80.2004 26.7 80.2004 24.7 80.2004 24C80.2004 20.6 78.1004 18.6 74.7004 18.6Z" fill="#50BFC3"/>
<path d="M139.7 12C139.6 12 139.6 12 139.6 12H134.4C132.6 12 131.2 12.5 130.2 13.5C128.7 15 128.8 17 128.8 17.7C128.8 20.4 130.2 22.2 132.6 22.8L129.5 27.3C129.3 27.6 129.2 28 129.3 28.4C129.4 28.8 129.6 29.1 129.9 29.4C130.1 29.6 130.4 29.7 130.7 29.7C131.2 29.7 131.6 29.5 131.9 29.1L136.3 22.8C136.3 22.8 136.3 22.7 136.4 22.7C136.7 22.4 136.8 22.1 136.8 21.7C136.8 20.9 136.1 20.2 135.3 20.2H134.4C132.5 20.2 131.8 19.5 131.7 17.7C131.7 17.1 131.7 16.1 132.3 15.6C132.7 15.2 133.4 15 134.4 15H138.3V28.2C138.3 29 139 29.7 139.8 29.7C140.6 29.7 141.3 29 141.3 28.2V13.5C141.2 12.7 140.5 12 139.7 12Z" fill="#50BFC3"/>
<path d="M104.201 29.7001H106.001C106.801 29.7001 107.501 29.0001 107.501 28.2001C107.501 27.4001 106.801 26.7001 106.001 26.7001H105.201L100.001 12.5001C100.001 12.4001 100.001 12.4001 99.9008 12.3001C99.9008 12.3001 99.9008 12.2001 99.8008 12.2001L99.7008 12.1001C99.7008 12.1001 99.7008 12.0001 99.6008 12.0001L99.5008 11.9001C99.5008 11.9001 99.4008 11.9001 99.4008 11.8001L99.3008 11.7001C99.3008 11.7001 99.2008 11.7001 99.2008 11.6001C99.2008 11.6001 99.2008 11.6001 99.1008 11.6001C99.1008 11.6001 99.1008 11.6001 99.0008 11.6001H98.9008C98.8008 11.6001 98.8008 11.6001 98.7008 11.6001C98.6008 11.6001 98.5008 11.6001 98.4008 11.6001H98.3008C98.2008 11.6001 98.2008 11.6001 98.1008 11.6001C98.1008 11.6001 98.1008 11.6001 98.0008 11.6001H97.9008C97.9008 11.6001 97.8008 11.6001 97.8008 11.7001C97.8008 11.7001 97.7008 11.7001 97.7008 11.8001C97.7008 11.8001 97.6008 11.8001 97.6008 11.9001L97.5008 12.0001L97.4008 12.1001L97.3008 12.2001C97.3008 12.2001 97.3008 12.3001 97.2008 12.3001C97.2008 12.3001 97.2008 12.4001 97.1008 12.4001C97.1008 12.4001 97.1008 12.4001 97.1008 12.5001L93.1008 23.6001C93.0008 24.0001 93.0008 24.4001 93.1008 24.7001C93.3008 25.1001 93.6008 25.3001 93.9008 25.5001C94.1008 25.6001 94.2008 25.6001 94.4008 25.6001C95.0008 25.6001 95.6008 25.2001 95.8008 24.6001L98.4008 17.3001L101.801 26.7001H91.3008C90.5008 26.7001 89.8008 27.4001 89.8008 28.2001C89.8008 29.0001 90.5008 29.7001 91.3008 29.7001H104.201Z" fill="#50BFC3"/>
<path d="M145 29.4001C145.3 29.6001 145.6 29.7001 145.9 29.7001C146.4 29.7001 146.8 29.5001 147.1 29.1001L150.8 24.0001C151.3 23.3001 151.1 22.4001 150.5 21.9001C150.2 21.7001 149.8 21.6001 149.4 21.6001C149 21.7001 148.7 21.9001 148.4 22.2001L144.7 27.3001C144.5 27.6001 144.4 28.0001 144.4 28.4001C144.5 28.8001 144.7 29.1001 145 29.4001Z" fill="#50BFC3"/>
<path d="M163.001 29.6C163.301 29.6 163.601 29.5 163.901 29.3C164.601 28.8 164.701 27.9 164.201 27.2L160.501 22.1C160.001 21.4 159.101 21.3 158.401 21.8C157.701 22.3 157.601 23.2 158.101 23.9L161.801 29C162.101 29.4 162.601 29.6 163.001 29.6Z" fill="#50BFC3"/>
<path d="M153.1 23.8002V28.2002C153.1 29.0002 153.8 29.7002 154.6 29.7002C155.4 29.7002 156.1 29.0002 156.1 28.2002V23.5002L162.8 14.3002C163.3 13.6002 163.1 12.7002 162.5 12.2002C161.8 11.7002 160.9 11.9002 160.4 12.5002L156.1 18.4002V13.4002C156.1 12.6002 155.4 11.9002 154.6 11.9002C153.8 11.9002 153.1 12.6002 153.1 13.4002V18.7002L148.6 12.5002C148.1 11.8002 147.2 11.7002 146.5 12.2002C145.8 12.7002 145.7 13.6002 146.2 14.3002L153.1 23.8002Z" fill="#50BFC3"/>
<path d="M180.001 13.4001C180.001 13.0001 179.801 12.6001 179.601 12.4001C179.001 11.8001 178.101 11.8001 177.501 12.4001L170.801 19.1001V13.4001C170.801 12.6001 170.101 11.9001 169.301 11.9001C168.501 11.9001 167.801 12.6001 167.801 13.4001V28.1001C167.801 28.9001 168.501 29.6001 169.301 29.6001C170.101 29.6001 170.801 28.9001 170.801 28.1001V23.3001L179.601 14.5001C179.801 14.2001 180.001 13.8001 180.001 13.4001Z" fill="#50BFC3"/>
<path d="M175.7 22.2C175.1 21.6 174.2 21.6 173.6 22.2C173.3 22.5 173.2 22.8 173.2 23.2C173.2 23.6 173.4 24 173.6 24.2L178.5 29.1C178.8 29.4 179.1 29.5 179.5 29.5C179.9 29.5 180.3 29.3 180.5 29.1C180.8 28.8 180.9 28.5 180.9 28.1C180.9 27.7 180.7 27.3 180.5 27.1L175.7 22.2Z" fill="#50BFC3"/>
<path d="M178.501 37.8C178.401 37.7 178.401 37.6 178.301 37.6H178.201C178.201 37.6 178.101 37.5 178.001 37.5H177.901C177.801 37.5 177.701 37.5 177.501 37.5H177.401C177.301 37.5 177.301 37.6 177.201 37.6C177.201 37.6 177.201 37.6 177.101 37.6C177.001 37.7 177.001 37.8 176.901 37.8L173.701 45.8C173.501 46.2 173.701 46.8 174.201 46.9C174.301 46.9 174.401 47 174.501 47C174.901 47 175.201 46.8 175.301 46.5L177.701 40.6L180.101 46.5C180.301 46.9 180.801 47.2 181.201 47C181.401 46.9 181.601 46.7 181.701 46.5C181.801 46.3 181.801 46 181.701 45.8L178.501 37.8Z" fill="#50BFC3"/>
<path d="M194.9 40.7999H193V39H196.6C197.1 39 197.5 38.5999 197.5 38.0999C197.5 37.5999 197.1 37.2 196.6 37.2H192.1C191.6 37.2 191.2 37.5999 191.2 38.0999V46C191.2 46.5 191.6 46.9 192.1 46.9H194.9C195.9 46.9 196.7 46.5999 197.2 46.0999C198 45.2999 198 44.1999 198 43.7999C198 41.8999 196.8 40.7999 194.9 40.7999ZM196.2 43.7999C196.2 44.0999 196.2 44.6 195.9 44.9C195.7 45.1 195.3 45.2 194.8 45.2H193V42.5999H194.9C195.9 42.4999 196.2 42.8999 196.2 43.7999Z" fill="#50BFC3"/>
<path d="M168.9 41.8L171.9 38.8C172.1 38.6 172.2 38.4001 172.2 38.2001C172.2 38.0001 172.1 37.7 171.9 37.6C171.6 37.3 171 37.3 170.7 37.6L167.2 41.1V38.2001C167.2 37.7001 166.8 37.3 166.3 37.3C165.8 37.3 165.4 37.7001 165.4 38.2001V46C165.4 46.5 165.8 46.9001 166.3 46.9001C166.8 46.9001 167.2 46.5 167.2 46V43.4001L167.6 43L171.3 46.7001C171.5 46.9001 171.7 47 171.9 47C172.1 47 172.4 46.9001 172.5 46.7001C172.8 46.4001 172.8 45.8 172.5 45.5L168.9 41.8Z" fill="#50BFC3"/>
<path d="M189.2 37.3001C188.8 37.1001 188.2 37.2001 188 37.6001L186.3 40.7001L183.9 37.4001C183.8 37.2001 183.6 37.1001 183.3 37.1001C183.1 37.1001 182.8 37.1001 182.6 37.3001C182.4 37.4001 182.3 37.6001 182.2 37.9001C182.2 38.1001 182.2 38.4001 182.4 38.6001L185.2 42.5001L183.4 45.7001C183.2 46.1001 183.3 46.7001 183.7 46.9001C183.8 47.0001 184 47.0001 184.1 47.0001C184.4 47.0001 184.7 46.8001 184.9 46.6001L189.3 38.6001C189.7 38.1001 189.6 37.5001 189.2 37.3001Z" fill="#50BFC3"/>
<path d="M154.2 37.2H151.4C150.9 37.2 150.5 37.5999 150.5 38.0999V46C150.5 46.5 150.9 46.9 151.4 46.9C151.9 46.9 152.3 46.5 152.3 46V43.2999H154.3C156.2 43.2999 157.4 42.1999 157.4 40.2999C157.4 39.8999 157.4 38.8 156.6 38C156 37.5 155.2 37.2 154.2 37.2ZM154.2 41.5999H152.2V39H154.2C154.7 39 155.1 39.0999 155.3 39.2999C155.6 39.5999 155.6 40 155.6 40.4C155.6 41.3 155.2 41.5999 154.2 41.5999Z" fill="#50BFC3"/>
<path d="M148.501 37.3C148.301 37.2 148.101 37.2 147.801 37.2C147.601 37.3 147.401 37.4 147.301 37.6L145.601 40.7L143.201 37.4C143.101 37.2 142.901 37.1 142.601 37C142.401 37 142.101 37 142.001 37.2C141.801 37.3 141.701 37.5 141.601 37.8C141.601 38 141.601 38.3 141.801 38.5L144.601 42.4L142.801 45.6C142.701 45.8 142.701 46 142.701 46.3C142.801 46.5 142.901 46.7 143.101 46.8C143.201 46.9 143.401 46.9 143.501 46.9C143.801 46.9 144.101 46.7 144.301 46.5L148.701 38.5C149.001 38.1 148.901 37.5 148.501 37.3Z" fill="#50BFC3"/>
<path d="M139.1 37.2H133.6C133.1 37.2 132.7 37.5999 132.7 38.0999C132.7 38.5999 133.1 39 133.6 39H135.5V46C135.5 46.5 135.9 46.9 136.4 46.9C136.9 46.9 137.3 46.5 137.3 46V39H139.2C139.7 39 140.1 38.5999 140.1 38.0999C139.9 37.5999 139.6 37.2 139.1 37.2Z" fill="#50BFC3"/>
<path d="M162.7 41.2H158.9C158.4 41.2 158 41.5999 158 42.0999C158 42.5999 158.4 43 158.9 43H162.7C163.2 43 163.6 42.5999 163.6 42.0999C163.6 41.5999 163.2 41.2 162.7 41.2Z" fill="#50BFC3"/>
</g>
<defs>
<clipPath id="clip0_777_357">
<rect width="198" height="60" fill="white"/>
</clipPath>
</defs>
</svg>
