<svg width="13" height="13" viewBox="0 0 13 13" fill="none" xmlns="http://www.w3.org/2000/svg">
<path fill-rule="evenodd" clip-rule="evenodd" d="M1.91123 2.25108C2.87236 1.28995 4.17592 0.75 5.53516 0.75C6.20818 0.75 6.87461 0.882562 7.49641 1.14012C8.1182 1.39767 8.68318 1.77518 9.15908 2.25108C9.63498 2.72698 10.0125 3.29195 10.27 3.91375C10.5276 4.53554 10.6602 5.20198 10.6602 5.875C10.6602 6.54802 10.5276 7.21446 10.27 7.83625C10.1413 8.1471 9.98255 8.44374 9.79653 8.72216L12.6173 11.5429L11.203 12.9571L8.38232 10.1364C8.1039 10.3224 7.80725 10.4811 7.49641 10.6099C6.87461 10.8674 6.20818 11 5.53516 11C4.17592 11 2.87236 10.46 1.91123 9.49892C0.95011 8.5378 0.410156 7.23423 0.410156 5.875C0.410156 4.51577 0.95011 3.2122 1.91123 2.25108ZM5.53516 2.75C4.70635 2.75 3.9115 3.07924 3.32545 3.66529C2.7394 4.25134 2.41016 5.0462 2.41016 5.875C2.41016 6.7038 2.7394 7.49866 3.32545 8.08471C3.9115 8.67076 4.70635 9 5.53516 9C5.94554 9 6.3519 8.91917 6.73104 8.76212C7.11018 8.60508 7.45468 8.37489 7.74486 8.08471C8.03505 7.79453 8.26523 7.45003 8.42228 7.07089C8.57933 6.69174 8.66016 6.28538 8.66016 5.875C8.66016 5.46462 8.57933 5.05826 8.42228 4.67911C8.26523 4.29997 8.03505 3.95547 7.74486 3.66529C7.45468 3.37511 7.11018 3.14492 6.73104 2.98788C6.3519 2.83083 5.94554 2.75 5.53516 2.75Z" fill="white"/>
</svg>
